<?xml version="1.0" encoding="utf-8"?>
<svg viewBox="0 0 500 500" xmlns="http://www.w3.org/2000/svg" xmlns:bx="https://boxy-svg.com">
  <defs>
    <bx:grid x="0" y="0" width="6.665" height="6.665"/>
  </defs>
  <rect x="126.635" y="32.541" width="53.32" height="380.689" style="fill: rgb(255, 255, 255); stroke: rgb(0, 0, 0);" rx="13.44" ry="13.44"/>
  <rect x="333.25" y="79.98" width="53.32" height="376.703" style="fill: rgb(255, 255, 255); stroke: rgb(0, 0, 0);" rx="13.329" ry="13.329"/>
  <path d="M 237.686 486.574 Q 248.983 472.726 260.279 486.574 L 320.143 559.955 Q 331.44 573.803 308.847 573.803 L 189.118 573.803 Q 166.525 573.803 177.822 559.955 Z" style="fill: rgb(255, 255, 255); stroke: rgb(0, 0, 0);" transform="matrix(-0.999997, 0.002485, -0.00392, -0.999993, 402.545929, 966.60144)" bx:shape="triangle 166.525 472.726 164.915 101.077 0.5 0.137 1@24871976"/>
  <path d="M 242.135 551.168 Q 253.643 535.482 265.151 551.168 L 326.136 634.291 Q 337.644 649.977 314.628 649.977 L 192.658 649.977 Q 169.642 649.977 181.15 634.291 Z" style="fill: rgb(255, 255, 255); stroke: rgb(0, 0, 0);" transform="matrix(0.999998, -0.001822, 0.002875, 0.999996, 101.385025, -529.391663)" bx:shape="triangle 169.642 535.482 168.002 114.495 0.5 0.137 1@853de641"/>
</svg>