<?xml version="1.0" encoding="utf-8"?>
<svg width="64" height="64" version="1" xmlns="http://www.w3.org/2000/svg">
  <path d="m 46.336118,11 c -8.885687,0 -10.55143,13 -5.552735,13 4.997974,0 14.438785,-13 5.552735,-13 z m -13.650391,2 c -0.143399,-5.08e-4 -0.294254,0.01 -0.453125,0.03125 -5.08204,0.680429 -3.295859,9.796407 -0.589844,9.966797 2.620386,0.165068 5.488334,-9.98229 1.042969,-9.998047 z m -9.294922,2.001953 c -0.113577,-0.0057 -0.229883,-0.0021 -0.351563,0.0098 -0.259582,0.02533 -0.53863,0.09225 -0.835937,0.205078 -4.757779,1.805744 -0.721985,9.26075 1.943359,8.759765 2.422623,-0.45428 2.765032,-8.799158 -0.755859,-8.974609 z M 16.783383,22 c -0.42469,-0.01134 -0.886012,0.100148 -1.375,0.369141 -3.910133,2.15224 1.318625,7.353224 3.619141,6.546875 C 21.04048,28.210157 19.756217,22.079701 16.783383,22 Z m 18.578125,4 C 28.618865,25.880207 19.724059,29.434516 18.207211,36.568359 16.564409,44.288409 24.970329,55 33.740414,55 38.054845,55 43.032042,50.608569 43.963071,45.425781 44.303002,43.536422 42.195079,42.851239 39.93768,43 37.473049,43.162417 34.829905,44.30693 35.00018,45.671875 35.266568,47.808333 34.495768,48.96522 32.959164,49 30.861242,48.744789 29.276182,47.782199 29.00018,45.945312 28.624468,41.12182 44.114787,37.684343 42.916196,30.205078 42.477812,27.469543 39.407094,26.071878 35.361508,26 Z" style="opacity:0.2"/>
  <path style="fill: rgb(255, 255, 255);" d="M 50.808 4.825 C 39.481 4.825 37.357 20.972 43.73 20.972 C 50.101 20.972 62.135 4.825 50.808 4.825 Z M 33.408 7.309 C 33.224 7.309 33.032 7.322 32.829 7.348 C 26.35 8.193 28.628 19.517 32.077 19.728 C 35.418 19.933 39.073 7.329 33.408 7.309 Z M 21.558 9.796 C 21.413 9.788 21.266 9.793 21.11 9.808 C 20.779 9.839 20.424 9.923 20.044 10.063 C 13.98 12.306 19.124 21.566 22.521 20.943 C 25.609 20.379 26.046 10.014 21.558 9.796 Z M 13.135 18.489 C 12.595 18.474 12.006 18.612 11.382 18.946 C 6.398 21.62 13.063 28.08 15.996 27.08 C 18.562 26.201 16.925 18.586 13.135 18.489 Z M 36.818 23.456 C 28.223 23.309 16.884 27.723 14.951 36.584 C 12.856 46.173 23.572 59.479 34.751 59.479 C 40.251 59.479 46.597 54.024 47.783 47.585 C 48.216 45.239 45.529 44.387 42.651 44.572 C 39.51 44.773 36.141 46.196 36.357 47.891 C 36.697 50.544 35.714 51.981 33.756 52.025 C 31.081 51.709 29.06 50.512 28.71 48.231 C 28.23 42.24 47.977 37.969 46.449 28.68 C 45.889 25.282 41.975 23.546 36.818 23.456 Z"/>
</svg>