<?xml version="1.0" encoding="utf-8"?>
<svg viewBox="0 0 504 504" xmlns="http://www.w3.org/2000/svg" xmlns:bx="https://boxy-svg.com">
  <defs>
    <bx:grid x="0" y="0" width="12.903" height="13.548"/>
  </defs>
  <ellipse style="fill: rgb(255, 255, 255);" cx="129.03" cy="257.412" rx="129.031" ry="121.932"/>
  <ellipse style="fill: rgb(255, 255, 255);" cx="374.188" cy="257.412" rx="129.031" ry="121.932"/>
  <rect y="108.384" width="503.217" height="243.864" style="fill: rgb(255, 255, 255);" rx="115.158" ry="115.158"/>
  <ellipse style="fill: rgb(178, 149, 43);" cx="359.851" cy="275.476" rx="21.504" ry="22.58"/>
  <ellipse style="fill: rgb(143, 36, 36);" cx="417.198" cy="245.369" rx="21.504" ry="22.58"/>
  <ellipse style="fill: rgb(64, 173, 54);" cx="331.177" cy="215.263" rx="21.504" ry="22.58"/>
  <rect x="111.826" y="176.124" width="34.408" height="108.384" style="" rx="2.407" ry="2.407"/>
  <ellipse style="fill: rgb(56, 110, 160);" cx="388.525" cy="185.156" rx="21.504" ry="22.58"/>
  <rect x="77.418" y="212.252" width="103.224" height="36.128" style="" rx="3.008" ry="3.008"/>
  <path d="M 128.256 180.858 Q 129.03 179.847 129.804 180.858 L 141.159 195.683 Q 141.933 196.694 140.385 196.694 L 117.675 196.694 Q 116.127 196.694 116.901 195.683 Z" style="stroke: rgb(0, 0, 0); fill: rgb(47, 47, 47);" bx:shape="triangle 116.127 179.847 25.806 16.847 0.5 0.06 1@ad642622"/>
  <path d="M 134.358 217.273 Q 135.132 216.262 135.906 217.273 L 147.261 232.098 Q 148.035 233.109 146.487 233.109 L 123.777 233.109 Q 122.229 233.109 123.003 232.098 Z" style="stroke: rgb(0, 0, 0); fill: rgb(47, 47, 47);" transform="matrix(-0.019077, 0.999818, -0.999818, -0.019077, 395.69928, 98.492363)" bx:shape="triangle 122.229 216.262 25.806 16.847 0.5 0.06 1@901f5350"/>
  <path d="M 134.358 226.984 Q 135.132 225.928 135.906 226.984 L 147.261 242.472 Q 148.035 243.528 146.487 243.528 L 123.777 243.528 Q 122.229 243.528 123.003 242.472 Z" style="stroke: rgb(0, 0, 0); fill: rgb(47, 47, 47);" transform="matrix(-0.019077, 0.999818, 0.999818, 0.019077, -142.8279, 91.72604)" bx:shape="triangle 122.229 225.928 25.806 17.6 0.5 0.06 1@4037a28e"/>
  <path d="M 128.772 -279.542 Q 129.546 -280.509 130.32 -279.542 L 141.675 -265.353 Q 142.449 -264.386 140.901 -264.386 L 118.191 -264.386 Q 116.643 -264.386 117.417 -265.353 Z" style="stroke: rgb(0, 0, 0); fill: rgb(47, 47, 47);" transform="matrix(1, 0, 0, -1, 0, 0)" bx:shape="triangle 116.643 -280.509 25.806 16.123 0.5 0.06 1@17e36be2"/>
</svg>